<?xml version="1.0" encoding="UTF-8"?>
<svg version="1.1" xmlns="http://www.w3.org/2000/svg" width="512" height="512">
<path d="M0 0 C168.96 0 337.92 0 512 0 C512 168.96 512 337.92 512 512 C343.04 512 174.08 512 0 512 C0 343.04 0 174.08 0 0 Z " fill="#FEFEFE" transform="translate(0,0)"/>
<path d="M0 0 C168.96 0 337.92 0 512 0 C512 168.96 512 337.92 512 512 C343.04 512 174.08 512 0 512 C0 343.04 0 174.08 0 0 Z M316 16 C314.50146876 16.49531597 313.00215093 16.98825638 311.50219727 17.47924805 C307.21936451 18.88337554 302.94278814 20.30556659 298.66796875 21.73388672 C296.06062671 22.60475041 293.45225962 23.47248461 290.84375 24.33984375 C289.55078758 24.77235695 289.55078758 24.77235695 288.23170471 25.21360779 C286.4227657 25.81538101 284.61124537 26.40943977 282.79747009 26.99647522 C277.66022838 28.67995736 272.67827674 30.52964685 267.70922852 32.66186523 C246.53656748 41.39954806 226.47050313 41.23677801 203.84185791 40.85876465 C196.12722283 40.73587522 188.41247281 40.6842607 180.69696236 40.662817 C178.03960393 40.64503161 175.38456041 40.5933899 172.72776794 40.53755188 C160.61196055 40.384187 150.52221814 42.33811384 140.8125 50.20703125 C133.71721216 57.22586125 129.32560585 65.34602987 128.4296875 75.25 C128.34702637 76.14203125 128.26436523 77.0340625 128.17919922 77.953125 C128.12006348 78.62859375 128.06092773 79.3040625 128 80 C126.98687744 80.33209473 125.97375488 80.66418945 124.92993164 81.00634766 C121.12891854 82.25632135 117.33409194 83.52425484 113.54077148 84.79736328 C111.90630738 85.34320441 110.27026008 85.88433062 108.63256836 86.42041016 C94.31120616 91.11407601 82.42037143 96.15393564 74.390625 109.71875 C69.02038994 120.94193787 69.91873742 132.56864793 73.89404297 144.10253906 C74.32088379 145.26495117 74.74772461 146.42736328 75.1875 147.625 C75.63899493 148.90778675 76.08830904 150.19134278 76.53564453 151.47558594 C77.49606661 154.2199356 78.47026637 156.95882145 79.45556641 159.69433594 C81.04502871 164.11171079 82.59350114 168.54285687 84.13671875 172.9765625 C86.57042389 179.95847613 89.02464338 186.93289694 91.49092102 193.90336609 C93.48739055 199.54659619 95.47591747 205.19257693 97.4609375 210.83984375 C98.29046158 213.19785358 99.12017788 215.55579563 99.95001221 217.91369629 C100.48026026 219.42081926 101.01017149 220.92806078 101.53973389 222.4354248 C102.27001593 224.51338749 103.00197002 226.59075354 103.734375 228.66796875 C104.14913086 229.84641357 104.56388672 231.0248584 104.99121094 232.23901367 C105.90879888 234.91184889 105.90879888 234.91184889 107 237 C106.30261719 237.12375 105.60523437 237.2475 104.88671875 237.375 C92.27035808 240.10655305 82.69005791 245.94646808 75.5625 256.8125 C73.43358766 260.57768381 72.52706715 263.94799077 71.75 268.1875 C70.70500573 272.95680526 69.56898847 274.90594324 65.5 277.625 C64.16775391 278.43324219 64.16775391 278.43324219 62.80859375 279.2578125 C39.56530983 293.67576052 26.6280935 323.13939368 20.48901367 348.70483398 C18.3615038 358.69021605 17.64139818 368.42793698 17.6875 378.625 C17.69313965 379.93879639 17.6987793 381.25259277 17.70458984 382.60620117 C18.02644179 408.5535228 24.48142617 434.14342101 42 454 C42.66515625 454.80824219 43.3303125 455.61648438 44.015625 456.44921875 C62.85323397 478.67062045 92.21736065 492.32130547 121 495 C142.97399296 496.17471849 164.51112541 494.01748675 184.96875 485.79296875 C188 485 188 485 190.140625 485.62109375 C192.32763365 487.24297201 194.27877635 488.99595588 196.25 490.875 C206.33125907 500.04129331 216.68215414 500.93895663 229.8203125 500.62890625 C236.93115038 500.20179734 243.07694921 498.54232596 249.75 496.125 C250.94778076 495.70186523 252.14556152 495.27873047 253.37963867 494.84277344 C259.31449969 492.69716957 265.15309756 490.41864518 270.88623047 487.77587891 C308.23548061 470.60483586 343.22216927 470.20483973 383.69604492 470.79077148 C385.28203224 470.81170065 385.28203224 470.81170065 386.9000597 470.83305264 C391.91495062 470.90189814 396.9264083 470.99547455 401.93952942 471.14628601 C416.2700979 471.49705453 428.91931991 470.2028093 440 460 C447.46358497 451.45993643 451.73404348 442.37767402 451 431 C454.96 431 458.92 431 463 431 C462.34 428.36 461.68 425.72 461 423 C461.60585938 422.85304688 462.21171875 422.70609375 462.8359375 422.5546875 C474.12813144 419.53185405 483.14070976 414.1038947 489.24609375 403.921875 C494.88728903 393.09408625 495.9204404 381.53903607 492.43533325 369.85025024 C491.303255 366.39205916 490.07264734 362.97575211 488.8125 359.5625 C488.09145783 357.54343834 487.37732131 355.5220608 486.66525936 353.49981689 C486.1754695 352.11228168 485.68292732 350.72571259 485.18669224 349.34046936 C483.6219623 344.9306199 482.2983377 340.51516639 481.08178711 335.99414062 C479.2929319 329.62435648 477.07184435 323.49082379 474.64262766 317.33789062 C454.7494606 266.93359675 450.78128727 221.43977204 452.05214167 167.56857526 C452.35918771 154.3761206 452.47099205 141.18134351 452.5893364 127.9860754 C452.60723888 126.02057776 452.62520931 124.05508073 452.64324951 122.08958435 C452.65614395 120.65046256 452.65614395 120.65046256 452.66929889 119.18226761 C452.72370038 113.56108857 452.81210744 107.94181663 452.93351507 102.32169163 C453.00648157 98.86006689 453.06416949 95.39827449 453.11979103 91.9363327 C453.14940278 90.34591334 453.18625323 88.75560821 453.23119926 87.16554832 C453.59612089 74.14881627 451.64350083 63.18354552 443 53 C433.62680145 43.91465399 422.93412204 40.82073374 410.19921875 40.90234375 C408.9446563 40.90446617 408.9446563 40.90446617 407.66474915 40.90663147 C405.005629 40.91220816 402.3465945 40.92475635 399.6875 40.9375 C397.87955851 40.94251801 396.0716157 40.94708039 394.26367188 40.95117188 C389.84241516 40.96216996 385.42122207 40.9794185 381 41 C380.8146167 40.39816895 380.6292334 39.79633789 380.43823242 39.17626953 C377.07581972 28.61903966 370.908032 21.50672269 361.62890625 15.453125 C354.7764132 11.9125045 348.13015584 11.5152017 340.5625 11.4375 C339.62204834 11.42275635 338.68159668 11.4080127 337.71264648 11.39282227 C329.93016216 11.50479563 323.31884325 13.48470149 316 16 Z " fill="#FEFEFE" transform="translate(0,0)"/>
<path d="M0 0 C0.99652588 0.01023193 1.99305176 0.02046387 3.01977539 0.03100586 C13.7009432 0.33907451 21.91273082 3.1960122 29.69140625 10.68359375 C35.21783461 16.63037684 38.05255212 21.81997039 40.4375 29.5625 C41.53102783 29.54678955 42.62455566 29.5310791 43.7512207 29.51489258 C47.85693832 29.46007823 51.96262444 29.42596501 56.06860352 29.39770508 C57.83656272 29.38273465 59.60448555 29.36235097 61.37231445 29.33618164 C76.41588019 29.11926848 89.62872638 29.84359012 101.44140625 40.34375 C108.86253542 48.16558809 112.62952555 57.75885838 112.46113586 68.42857361 C112.44737586 69.46557469 112.44737586 69.46557469 112.43333787 70.5235253 C112.41276658 72.0385713 112.38985548 73.55358688 112.36491585 75.06856728 C112.29576561 79.29303312 112.24456046 83.5177382 112.19026184 87.74241638 C112.17211345 89.09753084 112.17211345 89.09753084 112.15359843 90.48002136 C112.00040927 102.20086163 111.94583022 113.92240791 111.88949645 125.64405048 C111.8347575 136.99852497 111.7500858 148.35033207 111.55639648 159.70336914 C110.75156928 208.17554824 112.16658103 250.12876964 130.93734741 295.30569458 C135.11110544 305.48848879 138.23670617 316.04243473 141.4375 326.5625 C141.82145432 327.80781998 142.20540863 329.05313995 142.60099792 330.3361969 C143.17432221 332.20475864 143.73919704 334.0759278 144.296875 335.94921875 C145.29214508 339.10204349 146.35889789 342.21268964 147.453125 345.33203125 C152.55510203 360.111639 157.26805846 373.89727392 150.76171875 389.1015625 C144.32853383 401.0570389 135.0599634 407.17376657 122.4375 411.5625 C121.7775 411.5625 121.1175 411.5625 120.4375 411.5625 C121.0975 414.2025 121.7575 416.8425 122.4375 419.5625 C118.4775 419.5625 114.5175 419.5625 110.4375 419.5625 C110.540625 420.8 110.64375 422.0375 110.75 423.3125 C110.7354324 432.56292911 105.84908026 442.02381793 99.4375 448.5625 C87.21556041 459.38447197 74.09915414 460.08750268 58.61900902 459.59262276 C53.50879795 459.4373513 48.39708852 459.37602047 43.28515625 459.30273438 C42.21588237 459.28613297 41.14660849 459.26953157 40.04493237 459.2524271 C-0.53500489 458.6513099 -34.42162537 460.29363411 -71.79907227 477.05786133 C-78.15749748 479.87732665 -84.63264525 482.30447957 -91.18359375 484.63671875 C-92.21967773 485.02049683 -93.25576172 485.4042749 -94.32324219 485.79968262 C-106.19325209 489.94474285 -121.63107178 491.78302771 -133.51171875 486.6953125 C-140.12255659 483.39914209 -145.51997974 478.92017778 -150.5625 473.5625 C-155.88806256 475.11775278 -161.146931 476.76628572 -166.375 478.625 C-177.42263082 482.31693785 -188.98190082 483.12468038 -200.5625 483.5625 C-201.68132568 483.60552246 -201.68132568 483.60552246 -202.82275391 483.64941406 C-214.11595064 484.01968281 -224.59036838 483.28543252 -235.5625 480.5625 C-236.25053711 480.39621094 -236.93857422 480.22992188 -237.64746094 480.05859375 C-248.72125641 477.31176345 -258.61971962 473.1311206 -268.5625 467.5625 C-269.53703125 467.01851563 -270.5115625 466.47453125 -271.515625 465.9140625 C-296.78912855 450.7647402 -311.53478177 428.30169765 -319.703125 400.46484375 C-322.09898938 389.58544139 -322.92459293 378.87247235 -322.875 367.75 C-322.87008545 366.43555908 -322.8651709 365.12111816 -322.86010742 363.7668457 C-322.74280952 354.02390143 -321.96178164 344.99382254 -319.5625 335.5625 C-319.32901855 334.57080811 -319.32901855 334.57080811 -319.09082031 333.55908203 C-312.77284681 307.01981012 -297.93211111 281.59899273 -275.5625 265.5625 C-274.22251953 264.881875 -274.22251953 264.881875 -272.85546875 264.1875 C-270.35126914 262.7395029 -270.35126914 262.7395029 -269.62890625 259.99609375 C-269.46261719 259.00738281 -269.29632813 258.01867187 -269.125 257 C-267.09139113 247.59313887 -262.24454257 239.48691547 -254.5625 233.5625 C-248.54878602 229.95033465 -240.67588104 225.5625 -233.5625 225.5625 C-234.1671106 223.94782837 -234.1671106 223.94782837 -234.78393555 222.30053711 C-239.45294419 209.76501329 -243.8633761 197.147721 -248.21438599 184.4987793 C-253.99081886 167.70731425 -259.78249354 150.92366908 -265.83325195 134.22875977 C-266.18863037 133.24576904 -266.54400879 132.26277832 -266.91015625 131.25 C-267.20929932 130.42886719 -267.50844238 129.60773438 -267.81665039 128.76171875 C-271.20533508 118.76981312 -270.7841259 107.87167067 -266.2421875 98.3515625 C-259.73396816 87.54489132 -250.91782647 81.30279371 -239.125 77.44921875 C-238.35945801 77.18994095 -237.59391602 76.93066315 -236.80517578 76.66352844 C-234.39407194 75.84935245 -231.9785168 75.04946348 -229.5625 74.25 C-227.91244294 73.69560546 -226.26270004 73.14027498 -224.61328125 72.58398438 C-220.59989885 71.23265958 -216.58246348 69.8941129 -212.5625 68.5625 C-212.44567871 67.68787109 -212.32885742 66.81324219 -212.20849609 65.91210938 C-212.04430176 64.75517578 -211.88010742 63.59824219 -211.7109375 62.40625 C-211.55286621 61.26349609 -211.39479492 60.12074219 -211.23193359 58.94335938 C-209.3573551 49.47612269 -203.87033323 41.62024469 -196.01835632 36.13432312 C-186.34611173 29.94379091 -177.68771904 29.0026041 -166.52852631 29.57887268 C-162.19642184 29.79129583 -157.86093894 29.88112436 -153.52514648 29.98706055 C-152.61158197 30.01093779 -151.69801746 30.03481503 -150.75676918 30.05941582 C-107.07398481 31.15760901 -71.40622497 23.9384009 -31.19116211 7.20385742 C-20.86411265 2.97472723 -11.22577854 -0.17598882 0 0 Z M-195.6875 51 C-200.7951062 57.89908002 -200.84757187 65.11029916 -200.77539062 73.35717773 C-200.7739505 74.42895075 -200.77251038 75.50072376 -200.77102661 76.60497475 C-200.76349914 80.17295398 -200.74126604 83.74067995 -200.71875 87.30859375 C-200.70985027 89.8502936 -200.70168766 92.39199612 -200.69421387 94.93370056 C-200.66826422 102.44471271 -200.62446117 109.95553789 -200.57588196 117.46643353 C-200.55819075 120.23747341 -200.54167415 123.00851982 -200.52511311 125.77956665 C-200.41611687 143.93045802 -200.27320471 162.08101176 -200.11711979 180.23155248 C-200.05472315 187.49740699 -199.99517101 194.76328419 -199.93574238 202.02916348 C-199.8142695 216.8736341 -199.68958721 231.71807631 -199.5625 246.5625 C-198.23193825 246.72265594 -198.23193825 246.72265594 -196.87449646 246.88604736 C-193.53679067 247.29148178 -190.20006725 247.70373898 -186.86375427 248.12042236 C-185.42843499 248.29831158 -183.99278963 248.47359227 -182.55680847 248.64605713 C-164.36549284 250.83511774 -145.63607379 255.86897605 -130.91796875 267.37109375 C-128.29420386 269.28417666 -128.29420386 269.28417666 -125.078125 269.6171875 C-121.69082566 268.19704647 -118.5047408 266.49207272 -115.3125 264.6875 C-104.77572218 258.94918479 -95.83922954 255.60366866 -83.62109375 258.18359375 C-76.38317624 260.35207769 -70.11573591 263.87742019 -63.69140625 267.7578125 C-56.98476542 271.62606227 -51.27257666 272.77500905 -43.5625 271.5625 C-39.24669781 269.67399639 -35.46225689 267.18865208 -31.5625 264.5625 C-29.75698032 263.44695576 -27.9448942 262.34193652 -26.125 261.25 C-25.36316406 260.77949219 -24.60132813 260.30898438 -23.81640625 259.82421875 C-15.83267146 255.35498766 -7.63672861 255.26209623 1.171875 257.51953125 C12.14461662 261.19545614 22.30912728 266.99584752 32.4230957 272.53442383 C36.44053183 274.58477209 39.78985112 274.75550129 44.25 274.8125 C46.05404297 274.85117187 46.05404297 274.85117187 47.89453125 274.890625 C53.07530146 274.41081828 56.29020327 272.80037279 59.8125 269 C61.62240007 266.77340164 61.62240007 266.77340164 61.4375 264.5625 C64.8125 264.4375 64.8125 264.4375 68.4375 264.5625 C69.0975 265.2225 69.7575 265.8825 70.4375 266.5625 C70.34337803 271.45684236 69.32010656 274.59282962 65.94921875 278.21484375 C59.06295493 284.35376111 50.46137615 286.11462869 41.43505859 285.86230469 C32.63925837 284.98258139 24.66840143 280.27109879 17.0625 276.0625 C2.53298428 267.92742388 2.53298428 267.92742388 -13.5625 266.5625 C-19.48195566 269.00041404 -24.93567009 272.03729198 -30.1875 275.6875 C-37.68576505 280.82144724 -45.37976628 284.07510774 -54.5625 282.5625 C-62.66512679 280.26710834 -70.05068729 276.43295967 -77.36206055 272.33007812 C-83.51385781 268.90057489 -89.43049598 266.39371004 -96.5625 267.5625 C-103.81091955 269.9265398 -110.25692016 273.31835972 -116.5625 277.5625 C-112.74655242 282.75067691 -112.74655242 282.75067691 -108.69921875 287.7578125 C-101.85539785 295.84970495 -95.72132639 305.34804989 -92.20703125 315.40625 C-90.84572884 318.77971646 -90.84572884 318.77971646 -87.65625 319.98828125 C-86.4703125 320.28089844 -85.284375 320.57351563 -84.0625 320.875 C-74.81362373 323.43359359 -66.75309209 327.95739335 -58.40917969 332.61035156 C-53.91785149 334.92608133 -49.49268702 335.44573468 -44.5625 334.5625 C-37.80773747 331.45871801 -31.66600506 327.09193998 -25.59765625 322.82421875 C-17.66280451 317.90491527 -7.48618405 318.56634774 1.48046875 320.07421875 C9.39188556 322.41453685 16.66013799 326.66124411 23.87792969 330.58911133 C32.72899694 335.39352635 40.16065724 338.66923691 50.4375 337.5625 C55.01684888 336.15346958 57.02078297 333.93937422 59.9375 330.3125 C61.69140625 328.171875 61.69140625 328.171875 63.4375 326.5625 C66.875 326.5625 66.875 326.5625 69.4375 327.5625 C70.52982145 331.38562506 70.71237654 333.02374197 68.875 336.625 C62.45436825 344.36268442 56.43548772 346.71114053 46.515625 347.91796875 C33.74754116 348.54286174 23.08820794 342.0717226 12.23608398 336.12939453 C2.83544993 331.01077651 -5.63394727 327.43873267 -16.5625 329.5625 C-21.67025414 331.85437818 -26.22013106 335.15237799 -30.796875 338.34423828 C-38.49904246 343.65864863 -45.14395331 345.96302739 -54.5625 344.5625 C-61.33441342 342.81758979 -67.27675397 339.79371153 -73.375 336.4375 C-75.02517298 335.53508162 -76.67744429 334.63648711 -78.33203125 333.7421875 C-79.04979736 333.34757324 -79.76756348 332.95295898 -80.50708008 332.54638672 C-82.52033869 331.58268174 -84.38361781 331.01917949 -86.5625 330.5625 C-86.42618164 331.38766113 -86.42618164 331.38766113 -86.28710938 332.22949219 C-83.6450655 348.73887918 -83.20202652 364.86425903 -83.5625 381.5625 C-78.85414342 384.05298427 -74.14211534 386.53600799 -69.421875 389.00390625 C-66.72256841 390.4168728 -64.0489621 391.85025831 -61.390625 393.33984375 C-56.06794938 396.2639251 -51.64402607 397.84777097 -45.5625 396.5625 C-39.90516823 394.47094575 -34.97063822 391.21182058 -29.9375 387.9375 C-21.12158427 382.29383847 -13.22310243 379.85925704 -2.5625 381.5625 C6.76773394 383.77315869 14.83686221 387.56316659 23.1875 392.1875 C30.24835922 396.09204334 36.42623909 399.27198308 44.4375 400.5625 C44.5625 403.9375 44.5625 403.9375 44.4375 407.5625 C43.7775 408.2225 43.1175 408.8825 42.4375 409.5625 C35.00581991 409.41635093 29.56181453 407.1342086 23 403.8125 C22.12279297 403.38195312 21.24558594 402.95140625 20.34179688 402.5078125 C17.69955406 401.20713586 15.06760273 399.88753232 12.4375 398.5625 C10.61098482 397.64652152 8.78417228 396.7311357 6.95703125 395.81640625 C6.1575708 395.41494385 5.35811035 395.01348145 4.53442383 394.59985352 C-2.02678741 391.35400574 -8.30360681 390.40847693 -15.5625 391.5625 C-19.8776341 393.45309537 -23.66103241 395.93873675 -27.5625 398.5625 C-29.38940773 399.67726601 -31.22234523 400.78223947 -33.0625 401.875 C-34.22265625 402.58076172 -34.22265625 402.58076172 -35.40625 403.30078125 C-36.1178125 403.71714844 -36.829375 404.13351562 -37.5625 404.5625 C-38.1709375 404.93890625 -38.779375 405.3153125 -39.40625 405.703125 C-46.35380014 408.47207614 -55.80712916 407.28851242 -62.5625 404.5625 C-68.00746807 401.99188242 -73.32565894 399.10278312 -78.57617188 396.15429688 C-82.3343961 394.05988546 -82.3343961 394.05988546 -86.5625 393.5625 C-86.92432373 394.4757605 -86.92432373 394.4757605 -87.29345703 395.4074707 C-94.36133443 413.17126812 -101.95235876 429.24366627 -114.37109375 443.91796875 C-116.66884273 446.11841453 -116.66884273 446.11841453 -116.5625 447.5625 C-92.07545685 447.67936134 -67.58845557 447.76750205 -43.10118961 447.82156086 C-31.73102045 447.84732977 -20.36102467 447.88245541 -8.9909668 447.93969727 C0.920515 447.98957217 10.83187122 448.02180055 20.74347502 448.03294247 C25.99044154 448.03945425 31.23704882 448.05473176 36.48390007 448.09115028 C41.42595275 448.12517416 46.36749936 448.13553998 51.30965805 448.12803841 C53.12003266 448.12941009 54.93042479 448.13930441 56.74069786 448.15852737 C67.45157192 448.26665259 75.38973647 447.88248182 83.7421875 440.53515625 C84.26039063 439.90480469 84.77859375 439.27445312 85.3125 438.625 C85.84617187 437.99722656 86.37984375 437.36945313 86.9296875 436.72265625 C91.29550621 430.46799887 91.93396351 425.44725608 92.09155273 418.00952148 C92.14020934 416.48232184 92.14020934 416.48232184 92.1898489 414.92426968 C92.28587408 411.8038909 92.36284385 408.68345405 92.4375 405.5625 C92.48826248 403.80515662 92.53997452 402.04784032 92.59280396 400.29055786 C92.74532717 394.99759265 92.86242999 389.70415164 92.97265625 384.41015625 C92.99386662 383.4102107 93.01507698 382.41026516 93.03693008 381.38001823 C93.20330148 373.46189593 93.3543199 365.54352744 93.5 357.625 C93.53332617 355.83284561 93.53332617 355.83284561 93.56732559 354.00448608 C94.53546879 301.38216891 94.63164801 248.76079265 94.6251502 196.13084173 C94.6250006 193.07476238 94.6254726 190.01868379 94.62617874 186.96260452 C94.63188657 162.06667728 94.60387578 137.17130456 94.47179562 112.27568716 C94.45274625 108.68190403 94.43499939 105.08813794 94.42298126 101.49432373 C94.40061361 94.81895121 94.3614277 88.1446903 94.27108192 81.46986389 C94.24975182 79.68082917 94.23615577 77.89167977 94.23155785 76.1025238 C94.19545886 65.41775201 93.14022196 57.28202671 86.125 48.75 C77.60509553 41.81519404 71.25446645 40.41531959 60.42601013 40.40187073 C59.40931671 40.39678291 58.39262328 40.39169509 57.34512097 40.38645309 C53.93377664 40.3707404 50.52245349 40.36220662 47.11108398 40.35375977 C44.66679246 40.34422036 42.22250229 40.33432916 39.7782135 40.32411194 C32.44017761 40.29544629 25.10214206 40.27564844 17.76407179 40.25871959 C15.68986983 40.25392077 13.61566838 40.24893792 11.54146695 40.24391437 C-1.35210089 40.21294059 -14.24567332 40.18626893 -27.13926792 40.16949558 C-30.1235257 40.1655464 -33.1077834 40.16154336 -36.09204102 40.1574707 C-36.83371948 40.15646234 -37.57539794 40.15545398 -38.3395515 40.15441506 C-50.34603541 40.13741924 -62.35231282 40.09631931 -74.35869599 40.04544771 C-86.69864698 39.99359487 -99.03849195 39.96454335 -111.37855095 39.9572987 C-118.3017111 39.95264626 -125.22453299 39.93799862 -132.14758492 39.8975544 C-138.66394064 39.85953111 -145.17982623 39.85229639 -151.69631386 39.86556053 C-154.08272356 39.86550667 -156.46915916 39.85524731 -158.85547256 39.8338089 C-179.41667329 39.48301501 -179.41667329 39.48301501 -195.6875 51 Z " fill="#212029" transform="translate(340.5625,11.4375)"/>
<path d="M0 0 C31.69531466 -0.06846889 63.39060825 -0.12154508 95.08597961 -0.15319599 C98.82969942 -0.15694801 102.57341908 -0.16083099 106.31713867 -0.16479492 C107.06243157 -0.16558185 107.80772447 -0.16636878 108.575602 -0.16717956 C120.63608311 -0.18022597 132.69652122 -0.2038756 144.75697684 -0.23145839 C157.13630346 -0.25953388 169.5156076 -0.27618079 181.89496475 -0.28226548 C189.53090016 -0.28637749 197.16671403 -0.29935504 204.80261201 -0.3237494 C210.66230946 -0.34151337 216.52194486 -0.3433602 222.38167 -0.33932304 C224.78222018 -0.3401478 227.182775 -0.34610751 229.58329773 -0.35761642 C232.86461423 -0.3725754 236.14541371 -0.36894081 239.42674255 -0.36076355 C240.37326405 -0.36950207 241.31978556 -0.3782406 242.29498953 -0.38724393 C250.35696676 -0.3330618 257.84602902 1.37214799 264.36328125 6.33984375 C273.35984813 15.46523975 273.29214395 25.74772584 273.55078125 37.71875 C273.57159571 38.64410049 273.59241016 39.56945099 273.61385536 40.52284241 C274.39882591 76.82019252 274.19636378 113.14040271 274.18797541 149.44403315 C274.18749821 152.5115311 274.18765152 155.57902837 274.18803024 158.64652634 C274.19439625 211.45847975 274.04441906 264.25863288 273.0625 317.0625 C273.04068539 318.24824615 273.01887077 319.43399231 272.99639511 320.65567017 C272.85307221 328.38656102 272.69913148 336.11717659 272.53515625 343.84765625 C272.51565792 344.78413057 272.49615959 345.7206049 272.4760704 346.68545723 C272.36527546 351.89318831 272.22783154 357.09931695 272.06941605 362.30580521 C271.99384923 365.23872532 271.95715963 368.17106553 271.91964722 371.10470581 C271.87371382 373.1563321 271.82686926 375.20793822 271.77905273 377.25952148 C271.77351301 378.66965185 271.77351301 378.66965185 271.76786137 380.10826969 C271.54146917 387.85480393 269.09185044 393.48517966 263.97265625 399.3046875 C263.34230469 399.82289063 262.71195312 400.34109375 262.0625 400.875 C261.43472656 401.40867187 260.80695313 401.94234375 260.16015625 402.4921875 C254.86012874 406.19166421 250.51401996 407.43879568 244.103302 407.36076355 C243.32638406 407.36332682 242.54946611 407.3658901 241.7490052 407.36853105 C239.15553589 407.37345759 236.56265362 407.35699497 233.96923828 407.34057617 C232.10630812 407.33972965 230.24337696 407.34020552 228.38044739 407.34190369 C223.32922303 407.3427641 218.27821258 407.32513076 213.22703791 407.30418181 C207.94595583 407.28542278 202.6648688 407.28366518 197.38375854 407.28010559 C187.38598352 407.27078287 177.38830696 407.24616595 167.39057529 407.21605712 C156.00735342 407.18252024 144.62412683 407.16602888 133.24086785 407.15097082 C109.82719066 407.11961664 86.41360085 407.06685166 63 407 C65.61777376 403.03848127 68.32770454 399.24222008 71.25 395.5 C78.75354865 385.50758957 84.24990897 375.12703054 88.67578125 363.47265625 C90.02545586 359.93324407 91.4877907 356.47231637 93 353 C96.54379248 353.57642577 99.28975362 354.49180748 102.43359375 356.21484375 C103.24763672 356.65376953 104.06167969 357.09269531 104.90039062 357.54492188 C105.73763672 358.00447266 106.57488281 358.46402344 107.4375 358.9375 C117.75711556 364.58016682 125.97126117 367.5467221 138 366 C142.72076889 364.20918082 146.78340088 361.75598198 151 359 C152.05058594 358.34386719 153.10117187 357.68773437 154.18359375 357.01171875 C156.08426422 355.81792962 157.97618225 354.60998934 159.85546875 353.3828125 C165.0340929 350.04359037 169.96540289 350.32428569 176 351 C185.7249457 353.77698788 194.64559275 358.73973064 203.47875977 363.57177734 C209.52064305 366.8629313 214.92605699 369.64308573 222 369 C224.41121859 367.04366025 224.41121859 367.04366025 224.125 363.375 C224.08375 362.26125 224.0425 361.1475 224 360 C223.33790527 359.85232178 222.67581055 359.70464355 221.99365234 359.55249023 C214.52387074 357.72338333 208.31939592 354.78770317 201.625 351.0625 C188.38265166 343.96630438 175.83397329 338.1032437 160.38671875 341.58984375 C154.40080885 343.71577247 149.14606169 347.29066068 143.90820312 350.82592773 C138.75500164 354.29550468 134.20492104 356.71189929 127.83984375 356.57421875 C121.10247811 355.21191786 114.98397576 351.27400779 109 348 C107.69360752 347.30170059 106.38634584 346.60502431 105.078125 345.91015625 C102.03979803 344.29577079 99.01916811 342.64992227 96 341 C96.01047363 340.23034912 96.02094727 339.46069824 96.03173828 338.66772461 C96.29824058 318.24693774 96.29824058 318.24693774 94 298 C93.78090251 296.35556501 93.57064526 294.70988978 93.375 293.0625 C93.25125 292.051875 93.1275 291.04125 93 290 C100.39795654 292.59928203 107.18324348 296.11728275 114.02124023 299.91381836 C117.67388789 301.91002789 120.80184945 303.53665897 125 304 C125.88816406 304.10183594 126.77632813 304.20367187 127.69140625 304.30859375 C137.56554811 304.75192257 144.47980708 301.2959847 152.375 295.59765625 C159.2993768 290.64847738 164.50055548 287.61568218 173.37109375 288.25 C183.99270858 290.44520995 193.39606825 296.16392923 202.84082031 301.28125 C213.4870288 307.00465168 222.76964124 308.60902044 234.75 305.9375 C240.89244756 304.07076485 245.85784444 300.49367326 249.23828125 294.98046875 C250.33714205 292.12343067 249.66478608 289.92505875 249 287 C246.41571825 285.70121497 246.41571825 285.70121497 243 286 C240.74083137 288.10503432 238.90664298 290.35269616 237.02734375 292.80078125 C233.69774331 296.41265996 229.99367964 297.32786761 225.1875 297.5625 C214.42236167 297.34575225 204.35748895 290.79060512 195.125 285.75 C184.12788681 279.79921777 173.54846149 277.13627753 161 279 C153.6069003 281.38814904 147.35710161 285.89574481 141.15625 290.484375 C137.1618312 293.29204618 133.89051678 294.67293017 128.8828125 294.58203125 C122.7739535 293.34867083 117.350732 289.9342912 111.90234375 287.00878906 C109.3460737 285.65323107 106.75037138 284.40322595 104.125 283.1875 C103.26519531 282.7853125 102.40539062 282.383125 101.51953125 281.96875 C99.0331379 280.91092092 99.0331379 280.91092092 96.38671875 280.59375 C93.39903068 280.12224839 91.55803232 279.64993085 89 278 C86.12834745 273.53125083 84.03839329 268.83991918 81.90722656 263.98583984 C77.40204431 254.1243887 70.08762831 246.06169658 63 238 C65.70996123 234.75203176 69.26825708 233.17969535 73 231.375 C73.6290625 231.06304687 74.258125 230.75109375 74.90625 230.4296875 C81.32586629 227.27428288 86.65233704 225.61753362 93.62890625 227.8359375 C100.3959254 230.57957247 106.91195092 233.8760467 113.39257812 237.23242188 C121.48313579 241.38747209 128.79526344 243.7703265 137.8203125 241.1953125 C144.45962494 238.62811169 150.32451021 235.09969717 156.19238281 231.12329102 C161.99842946 227.1977077 165.91311617 225.53781192 173 226 C183.7889545 228.29665863 193.36704711 233.56099087 202.96679688 238.80957031 C213.29824588 244.42202185 222.46930264 246.92173131 234.1875 243.875 C240.49471137 241.73577067 245.33017756 238.47943332 249.0625 232.9375 C250.08159135 229.74434711 250.0778943 228.14385838 249 225 C247.81575674 223.58422523 247.81575674 223.58422523 244.4375 223.9375 C242.7359375 223.9684375 242.7359375 223.9684375 241 224 C240.6596875 225.11375 240.6596875 225.11375 240.3125 226.25 C238.733845 229.55765809 237.00385901 230.94858409 234 233 C223.93153013 236.35615662 215.75886982 233.98979074 206.625 229.5 C203.72705767 228.04060064 200.8516091 226.54793795 198 225 C198.66 224.67 199.32 224.34 200 224 C199.89042969 223.30519531 199.78085937 222.61039063 199.66796875 221.89453125 C199.21610941 218.9960189 198.77279976 216.09631457 198.33398438 213.19580078 C198.10077416 211.66254593 197.86488293 210.12969753 197.62695312 208.59716797 C195.79175063 196.72998166 194.4561881 185.00246616 194 173 C199.12400454 174.98627142 204.06368055 177.33185966 209.0390625 179.66015625 C217.4258432 183.45522984 229.06797787 183.56990013 237.75 180.3125 C243.31399922 177.62968883 247.44744559 173.67234313 250 168 C249.77336985 164.67039895 249.77336985 164.67039895 248 162 C245.12762267 161.41557037 245.12762267 161.41557037 242 162 C240.61558 163.96498322 239.28796166 165.97048465 238 168 C232.7943802 172.20879899 228.16712989 172.72882277 221.53515625 172.515625 C211.28488796 171.02055824 201.86811881 165.10369286 193 160 C193.66 159.34 194.32 158.68 195 158 C195.47223007 156.18018655 195.87945791 154.34320937 196.25 152.5 C197.7717831 146.13894664 200.21708452 141.30332171 204 136 C204.45632813 135.34773437 204.91265625 134.69546875 205.3828125 134.0234375 C211.1958516 126.6277909 219.45290397 121.47393706 227 116 C236.88707191 108.80176351 245.3347257 101.1652322 248.53540039 88.95800781 C249.18751258 84.80614692 249.14698382 80.72765207 249.125 76.53125 C249.12234131 75.60727417 249.11968262 74.68329834 249.11694336 73.73132324 C249.04953406 63.63912757 248.54345388 53.57578088 248 43.5 C247.80618109 39.9065453 247.61985859 36.31280276 247.4375 32.71875 C247.39375244 31.95244263 247.35000488 31.18613525 247.30493164 30.39660645 C246.80843841 20.58212414 247 10.86463986 247 1 C165.49 1 83.98 1 0 1 C0 0.67 0 0.34 0 0 Z " fill="#E7E7E8" transform="translate(161,52)"/>
<path d="M0 0 C20.7870405 16.79284217 34.93286422 41.03404411 38.03710938 67.77661133 C39.54257397 85.38875489 38.73420841 102.33868926 33.2421875 119.17578125 C33.01756836 119.86945801 32.79294922 120.56313477 32.56152344 121.27783203 C23.38443995 148.57531399 3.15610266 170.34495589 -21.94140625 183.89453125 C-25.16825482 185.47371307 -28.4187974 186.85089682 -31.7578125 188.17578125 C-32.9025 188.66304687 -34.0471875 189.1503125 -35.2265625 189.65234375 C-53.38616961 196.60562412 -78.67343237 195.67418735 -96.7578125 189.17578125 C-97.91023438 188.82515625 -99.06265625 188.47453125 -100.25 188.11328125 C-124.77250782 180.24860168 -145.72750981 162.9983689 -157.7578125 140.17578125 C-170.84936046 111.6885729 -171.7132475 76.79089768 -161.31640625 47.234375 C-151.53632772 21.14773556 -136.16567799 -0.09358692 -110.2578125 -11.94921875 C-74.41697626 -26.73752839 -31.27960149 -24.13488875 0 0 Z " fill="#E8B748" transform="translate(196.7578125,289.82421875)"/>
<path d="M0 0 C0.79535156 0.44472656 1.59070313 0.88945312 2.41015625 1.34765625 C7.54870904 4.74062848 8.52074825 10.05478607 9.78710938 15.76513672 C10.21000579 17.84026855 10.60734231 19.91896543 11 22 C11.22558594 23.07378906 11.45117188 24.14757812 11.68359375 25.25390625 C15.03835029 42.62923149 12.88092136 59.09661861 3 74 C-0.35759336 78.20085989 -4.36916501 81.31425508 -8.625 84.5625 C-15.01699671 89.46266784 -18.77703829 93.75259558 -20 102 C-20.17031171 107.26977697 -19.95177337 112.53413653 -19.74609375 117.80078125 C-19.58121774 125.82151424 -20.86197423 130.75488485 -25.60546875 137.171875 C-32.737723 144.28651874 -40.04880203 146.58450113 -50 147 C-48.85271556 143.55814667 -48.15865637 143.19639411 -45.25 141.25 C-38.73910766 136.52435233 -35.88812871 131.83162952 -34 124 C-32.71229174 112.76969816 -34.41543687 104.14091678 -41.4296875 95.171875 C-46.51958119 90.16109883 -53.74541188 87.66371676 -60.18896484 84.80517578 C-72.48158122 79.33994946 -72.48158122 79.33994946 -77 74 C-77.556875 73.38125 -78.11375 72.7625 -78.6875 72.125 C-82.06761708 66.65242949 -82.8565848 60.28885045 -82 54 C-79.87247512 47.01866088 -75.24208208 42.60228564 -69.140625 38.859375 C-64.09935754 36.8355085 -57.8201153 37.21767566 -52.6484375 38.65234375 C-44.9625599 42.10950491 -40.82147398 48.79799135 -37 56 C-34.69 56 -32.38 56 -30 56 C-29.16465077 48.4818569 -31.47055906 43.95926446 -36 38 C-41.10563157 32.4302201 -47.62843394 28.65083852 -55 27 C-55.04898438 26.37351562 -55.09796875 25.74703125 -55.1484375 25.1015625 C-55.26058594 23.87566406 -55.26058594 23.87566406 -55.375 22.625 C-55.47941406 21.40683594 -55.47941406 21.40683594 -55.5859375 20.1640625 C-55.82892588 17.79665809 -55.82892588 17.79665809 -58 16 C-61 15.66666667 -61 15.66666667 -64 16 C-64.99 16.99 -64.99 16.99 -66 18 C-65.99433093 19.41726794 -65.94721624 20.83456177 -65.875 22.25 C-66.07421875 24.6875 -66.07421875 24.6875 -67 27 C-69.86971633 28.99322933 -72.78158945 30.29080183 -75.984375 31.6796875 C-82.73013179 34.6331406 -86.74638983 39.48099122 -90 46 C-93.72285475 55.56747638 -92.65780951 64.98171569 -89.15625 74.4609375 C-87.82714234 77.37958609 -86.18566823 79.65821261 -84 82 C-84 82.66 -84 83.32 -84 84 C-83.14148438 84.41185547 -83.14148438 84.41185547 -82.265625 84.83203125 C-79.99718605 86.00145064 -77.90082536 87.31503277 -75.75 88.6875 C-70.62011635 91.81733973 -65.27957339 94.155486 -59.70996094 96.37573242 C-52.96570413 99.16028037 -47.7524752 102.86735504 -44.69921875 109.6953125 C-43.11484077 114.91756395 -42.87458928 120.23720894 -44.953125 125.33984375 C-48.26669801 130.97082066 -52.5900861 135.21118682 -59 137 C-64.86075599 137.47264161 -68.79496865 137.02838188 -74 134 C-79.34679932 129.27264694 -81.87161538 125.02105988 -83 118 C-87.00254456 117.90818866 -87.00254456 117.90818866 -91 118 C-92.28612676 119.05978933 -92.28612676 119.05978933 -92.09765625 121.50390625 C-92.08605469 122.51324219 -92.07445313 123.52257812 -92.0625 124.5625 C-92.05347656 125.57441406 -92.04445313 126.58632813 -92.03515625 127.62890625 C-92.02355469 128.41136719 -92.01195313 129.19382812 -92 130 C-99.87926774 126.31486444 -106.06174597 120.98525286 -112.52978516 115.29101562 C-113.7742556 114.19822923 -115.03218364 113.12079758 -116.29296875 112.046875 C-131.67530041 98.90588109 -144.22686733 82.9317225 -154.625 65.625 C-155.60339844 64.00464844 -155.60339844 64.00464844 -156.6015625 62.3515625 C-158.8554632 56.94975579 -158.74564594 52.45995802 -156.6796875 47.10546875 C-156.09508151 45.79180134 -155.49287402 44.48585201 -154.875 43.1875 C-154.55442627 42.49100342 -154.23385254 41.79450684 -153.90356445 41.0769043 C-152.95534516 39.04118059 -151.98271796 37.01925512 -151 35 C-150.28263672 33.50339844 -150.28263672 33.50339844 -149.55078125 31.9765625 C-138.89865086 11.16065154 -121.16278537 -4.4155185 -99 -12 C-64.66533832 -22.49036487 -30.59295935 -19.27533277 0 0 Z " fill="#FDC84C" transform="translate(193,287)"/>
<path d="M0 0 C1.52824314 0.88313323 3.05230452 1.77384743 4.5625 2.6875 C5.64800517 13.15659427 2.47693206 23.2684634 -3.8125 31.6875 C-7.40347142 35.89923016 -11.43634621 40.1869231 -16.4375 42.6875 C-18.60271235 42.81846042 -20.7698988 42.91753691 -22.9375 43 C-34.81114114 43.84381206 -42.5682299 48.82096657 -52.1171875 55.4453125 C-56.53258155 58.47262624 -59.996517 60.37042213 -65.5546875 60.26953125 C-71.6635465 59.03617083 -77.086768 55.6217912 -82.53515625 52.69628906 C-85.0914263 51.34073107 -87.68712862 50.09072595 -90.3125 48.875 C-91.17230469 48.4728125 -92.03210938 48.070625 -92.91796875 47.65625 C-95.4043621 46.59842092 -95.4043621 46.59842092 -98.05078125 46.28125 C-101.03846932 45.80974839 -102.87946768 45.33743085 -105.4375 43.6875 C-108.30915255 39.21875083 -110.39910671 34.52741918 -112.53027344 29.67333984 C-117.03545569 19.8118887 -124.34987169 11.74919658 -131.4375 3.6875 C-128.72753877 0.43953176 -125.16924292 -1.13280465 -121.4375 -2.9375 C-120.8084375 -3.24945313 -120.179375 -3.56140625 -119.53125 -3.8828125 C-113.11163371 -7.03821712 -107.78516296 -8.69496638 -100.80859375 -6.4765625 C-94.0415746 -3.73292753 -87.52554908 -0.4364533 -81.04492188 2.91992188 C-72.95436421 7.07497209 -65.64223656 9.4578265 -56.6171875 6.8828125 C-49.97787506 4.31561169 -44.11298979 0.78719717 -38.24511719 -3.18920898 C-25.33168341 -11.92023772 -12.70092286 -6.91732021 0 0 Z " fill="#FDFDFD" transform="translate(355.4375,286.3125)"/>
<path d="M0 0 C0 48.84 0 97.68 0 148 C-2.07119735 145.92880265 -2.5245389 144.92532983 -3.42602539 142.22021484 C-3.69196503 141.4325473 -3.95790466 140.64487976 -4.23190308 139.83334351 C-4.51760162 138.96794952 -4.80330017 138.10255554 -5.09765625 137.2109375 C-5.4039798 136.30034576 -5.71030334 135.38975403 -6.02590942 134.4515686 C-6.69254249 132.46916469 -7.35668084 130.48592055 -8.01864624 128.50195312 C-9.7981986 123.17115199 -11.59768016 117.84710669 -13.3984375 112.5234375 C-13.77234116 111.41740173 -14.14624481 110.31136597 -14.53147888 109.17181396 C-19.31464154 95.06401295 -24.31988851 81.03509787 -29.32641602 67.00537109 C-35.22232758 50.47472891 -35.22232758 50.47472891 -37.953125 42.4296875 C-38.34016602 41.29257324 -38.72720703 40.15545898 -39.12597656 38.98388672 C-41.15896999 32.04331529 -40.55152328 26.64352548 -37.3125 20.19921875 C-30.39321555 8.60529867 -13.72829701 0 0 0 Z " fill="#94C9FA" transform="translate(129,95)"/>
<path d="M0 0 C1.67578125 1.23046875 1.67578125 1.23046875 3 3 C3.29296875 5.26171875 3.29296875 5.26171875 3.1875 7.6875 C3.14689453 8.89986328 3.14689453 8.89986328 3.10546875 10.13671875 C3.05326172 11.05904297 3.05326172 11.05904297 3 12 C3.78375 12.04125 4.5675 12.0825 5.375 12.125 C15.53732275 14.57797446 22.56541107 21.46034044 27.9375 30.125 C29.13317806 33.36036417 29.4559019 35.58073577 29 39 C27.44909053 41.44880443 26.39969992 41.88429739 23.625 42.6875 C20.4271216 41.84996042 20.21930664 41.18641391 18.5625 38.4375 C17.94181641 37.34695313 17.94181641 37.34695313 17.30859375 36.234375 C14.35555562 31.19217258 10.82120557 26.44192584 5.109375 24.4453125 C-1.74795488 22.99765397 -7.93482551 22.81174673 -14 26.625 C-18.52050125 30.08907977 -21.18351604 33.55054812 -23 39 C-23.68032245 45.51539573 -22.50340533 50.9941239 -20 57 C-19.71898438 57.70511719 -19.43796875 58.41023438 -19.1484375 59.13671875 C-17.70142252 61.48442672 -16.52900767 61.95073086 -14 63 C-11.18637565 64.40681217 -8.37381237 65.81517092 -5.56640625 67.234375 C-3.02324764 68.49341957 -0.4799452 69.70754268 2.09765625 70.890625 C9.77289019 74.46593961 16.39332099 77.55515033 21 85 C21.64001953 85.97839844 21.64001953 85.97839844 22.29296875 86.9765625 C26.64205635 94.90288597 26.30026613 105.30538109 24 113.875 C21.58223369 119.83507509 17.25553598 125.57863487 11.2890625 128.18359375 C10.38929688 128.51488281 9.48953125 128.84617187 8.5625 129.1875 C5.94909833 130.15562168 5.94909833 130.15562168 4 132 C3.15838578 135.71274606 3.05970601 139.01927558 3.16015625 142.8203125 C3 146 3 146 1.6875 147.91015625 C-0.90270129 149.58299458 -3.00057087 149.31908821 -6 149 C-8 147 -8 147 -8.1953125 143.7421875 C-8.17210938 142.46601563 -8.14890625 141.18984375 -8.125 139.875 C-8.10695313 138.59367188 -8.08890625 137.31234375 -8.0703125 135.9921875 C-8.04710938 135.00476563 -8.02390625 134.01734375 -8 133 C-8.969375 132.938125 -9.93875 132.87625 -10.9375 132.8125 C-19.20487378 131.56239308 -25.11348274 126.59872189 -30.3359375 120.3359375 C-33.87922749 115.36202339 -35.73709452 110.19159398 -35 104 C-33 102 -33 102 -30.0625 101.6875 C-27 102 -27 102 -25.41796875 103.25 C-23.83101298 105.20855699 -23.11470419 106.95087864 -22.25 109.3125 C-20.21434982 114.11193677 -17.45049777 117.26723821 -13 120 C-7.38889398 121.80041394 -2.08308491 121.78004675 3.25 119.3125 C8.02045107 116.66536735 10.8820816 112.98967217 13 108 C13.8092768 101.93983423 13.58849682 96.09642981 10.41796875 90.76171875 C5.49300244 84.64282121 -2.05321193 82.030524 -9.0625 79 C-20.278567 74.14152694 -27.92675571 69.22243989 -33.03515625 57.65625 C-35.85616418 49.57373426 -36.6875403 40.22630073 -33.375 32.1875 C-32.62836376 30.76707009 -31.835932 29.36978265 -31 28 C-30.57589844 27.30132812 -30.15179688 26.60265625 -29.71484375 25.8828125 C-24.67011536 18.43516335 -17.76498205 13.8648898 -9 12 C-9.05220703 11.07767578 -9.05220703 11.07767578 -9.10546875 10.13671875 C-9.13253906 9.32847656 -9.15960938 8.52023437 -9.1875 7.6875 C-9.23970703 6.48673828 -9.23970703 6.48673828 -9.29296875 5.26171875 C-9 3 -9 3 -7.67578125 1.23046875 C-5.08865228 -0.6691714 -3.11047001 -0.38880875 0 0 Z " fill="#232026" transform="translate(135,302)"/>
<path d="M0 0 C7.25299303 3.93623287 13.7829668 7.4096523 22.24755859 7.34838867 C23.32392578 7.35612305 24.40029297 7.36385742 25.50927734 7.37182617 C28.89248861 6.92997272 30.74545005 5.83664967 33.56005859 3.97338867 C34.22005859 3.97338867 34.88005859 3.97338867 35.56005859 3.97338867 C35.99318359 2.79776367 35.99318359 2.79776367 36.43505859 1.59838867 C37.56005859 -1.02661133 37.56005859 -1.02661133 39.56005859 -3.02661133 C42.69047589 -3.35963444 44.73904157 -3.50333089 47.49755859 -1.90161133 C48.56005859 -0.02661133 48.56005859 -0.02661133 48.56005859 2.72338867 C46.64963325 8.93227105 43.65078384 12.61664376 37.99755859 15.84838867 C29.5458713 20.27197544 18.63961423 20.46661286 9.44287109 18.20776367 C6.35988263 16.96758134 3.49172238 15.54156859 0.56005859 13.97338867 C-1.82689934 12.71171843 -4.21465846 11.45157343 -6.60253906 10.19165039 C-8.24242333 9.31922308 -9.87662857 8.43600478 -11.50390625 7.5402832 C-19.26103985 3.32498147 -27.41304791 -0.50452968 -36.43994141 0.97338867 C-42.38491865 2.86136192 -47.00863969 5.43248693 -52.06494141 9.03588867 C-60.45168272 14.99081872 -67.84597417 17.34463679 -78.35058594 16.36254883 C-84.25020088 15.26369557 -89.51149622 11.94840723 -94.65527344 8.9909668 C-97.12325786 7.58377677 -99.6485781 6.30470442 -102.18994141 5.03588867 C-102.92728516 4.65561523 -103.66462891 4.2753418 -104.42431641 3.88354492 C-111.08883248 0.8741801 -117.92360065 1.2267142 -124.75244141 3.53588867 C-128.91221713 5.16842635 -132.66666402 7.18667523 -136.50244141 9.47338867 C-147.25080686 15.87286362 -155.93674709 18.2473486 -168.43994141 16.97338867 C-174.7729995 15.36151093 -178.80314298 11.25568934 -182.43994141 5.97338867 C-184.06201306 3.01134478 -184.50185092 1.63891589 -184.18994141 -1.71411133 C-183.43994141 -4.02661133 -183.43994141 -4.02661133 -181.43994141 -6.02661133 C-178.50244141 -6.40161133 -178.50244141 -6.40161133 -175.43994141 -6.02661133 C-173.75244141 -4.33911133 -173.75244141 -4.33911133 -172.43994141 -2.02661133 C-170.11142729 2.05055242 -170.11142729 2.05055242 -166.43994141 4.97338867 C-157.1554981 6.45214268 -150.69463371 3.78940712 -142.81494141 -0.83911133 C-131.36613844 -7.37139205 -119.99150039 -12.65932073 -106.43994141 -10.02661133 C-100.46619247 -8.06941178 -94.9391251 -5.03365559 -89.43994141 -2.02661133 C-79.52409098 3.78218263 -79.52409098 3.78218263 -68.43994141 3.97338867 C-62.77514247 1.86297338 -57.81287303 -1.39105963 -52.75244141 -4.65161133 C-34.00877801 -16.61731578 -18.0423157 -9.82027294 0 0 Z " fill="#22212A" transform="translate(363.43994140625,216.026611328125)"/>
<path d="M0 0 C1.6986639 2.54799585 2.53149402 4.24525865 3.44873047 7.08154297 C3.71595917 7.90024872 3.98318787 8.71895447 4.2585144 9.56246948 C4.68355759 10.8889299 4.68355759 10.8889299 5.1171875 12.2421875 C5.41561554 13.16154083 5.71404358 14.08089417 6.02151489 15.02810669 C6.97700827 17.9756892 7.9259641 20.92533287 8.875 23.875 C9.5061077 25.82304718 10.13761387 27.77096532 10.76953125 29.71875 C13.6316506 38.555818 16.46364263 47.39974265 19.17236328 56.28515625 C20.42245987 60.38576808 21.71025907 64.47422317 23 68.5625 C23.25346191 69.37404541 23.50692383 70.18559082 23.76806641 71.02172852 C25.18843519 75.54415033 26.72944864 79.99101015 28.375 84.4375 C31.24414801 93.08110975 31.1418079 101.42164747 27.3203125 109.74609375 C22.0037519 118.8219975 13.96822302 121.99948394 4.203125 124.609375 C2.73601074 125.00334473 2.73601074 125.00334473 1.23925781 125.40527344 C0.50030273 125.6015332 -0.23865234 125.79779297 -1 126 C-1.13893635 95.43186599 -0.92853128 64.87720411 -0.5 34.3125 C-0.48804218 33.45932064 -0.47608437 32.60614128 -0.46376419 31.727108 C-0.31500258 21.15131767 -0.16033335 10.57562113 0 0 Z " fill="#87B8E4" transform="translate(453,288)"/>
<path d="M0 0 C3.5625 1.25 3.5625 1.25 4.57226562 2.77172852 C4.98508789 3.78384399 4.98508789 3.78384399 5.40625 4.81640625 C5.90886353 6.04012939 5.90886353 6.04012939 6.42163086 7.28857422 C8.87371673 13.65360774 11.27108519 20.03562591 13.625 26.4375 C14.19481617 27.98408243 14.76472302 29.53063145 15.3347168 31.07714844 C16.20871788 33.44866762 17.08242656 35.82029053 17.95478821 38.19241333 C19.63482985 42.75564344 21.33461513 47.31067573 23.0582428 51.85762024 C24.09331741 54.59027793 25.11983135 57.32610873 26.14523315 60.06240845 C26.62737444 61.34253357 27.1134111 62.62119909 27.60354614 63.89828491 C28.28397718 65.67298411 28.94895581 67.45358435 29.61328125 69.234375 C29.99137939 70.23178711 30.36947754 71.22919922 30.7590332 72.25683594 C31.69206619 75.73267443 31.83474824 78.66634068 31.5625 82.25 C29.5625 84.25 29.5625 84.25 26.625 84.625 C23.5625 84.25 23.5625 84.25 21.9987793 82.54736328 C20.47866481 80.11590359 19.48973943 77.81419494 18.51953125 75.1171875 C18.16826172 74.14652344 17.81699219 73.17585938 17.45507812 72.17578125 C17.09865234 71.16902344 16.74222656 70.16226563 16.375 69.125 C16.00697266 68.11050781 15.63894531 67.09601563 15.25976562 66.05078125 C12.5625 58.53446776 12.5625 58.53446776 12.5625 56.25 C0.1875 56.745 0.1875 56.745 -12.4375 57.25 C-13.4275 60.88 -14.4175 64.51 -15.4375 68.25 C-16.08008056 70.44469609 -16.74137112 72.6341967 -17.4375 74.8125 C-17.746875 75.80378906 -18.05625 76.79507813 -18.375 77.81640625 C-19.4375 80.25 -19.4375 80.25 -22.4375 82.25 C-25.75990324 81.9258631 -27.04526303 81.64223697 -29.4375 79.25 C-29.84894378 74.09455633 -28.99576024 70.04525205 -27.3737793 65.16894531 C-27.15426605 64.49974564 -26.93475281 63.83054596 -26.70858765 63.1410675 C-25.98668046 60.9498212 -25.24974335 58.76399044 -24.51171875 56.578125 C-24.00258243 55.0485382 -23.49411398 53.51872895 -22.98628235 51.9887085 C-21.92278511 48.79242577 -20.85192713 45.59873444 -19.77563477 42.40673828 C-18.39706859 38.3166181 -17.03607621 34.22090568 -15.68037701 30.1231575 C-14.63438613 26.96739145 -13.57970686 23.81458378 -12.52231789 20.66262054 C-12.0170071 19.15320016 -11.51428029 17.64291216 -11.0141964 16.13175201 C-10.31465839 14.02260597 -9.60364399 11.91768193 -8.8894043 9.81347656 C-8.4874736 8.61547424 -8.08554291 7.41747192 -7.6714325 6.1831665 C-5.80275687 1.74115953 -4.88464876 0.35524718 0 0 Z " fill="#23222B" transform="translate(290.4375,88.75)"/>
<path d="M0 0 C5.3265506 0.92190299 7.64852524 5.34023793 10.69921875 9.57348633 C12.1112803 11.61954975 13.49870439 13.67972482 14.875 15.75 C19.06766747 22.05662302 19.06766747 22.05662302 24.25 27.5625 C24.95125 26.53511719 25.6525 25.50773437 26.375 24.44921875 C28.33769698 21.57670823 30.31389209 18.71400514 32.296875 15.85546875 C34.0812817 13.27995985 35.82590298 10.68924063 37.515625 8.05078125 C42.36501249 0.7480619 42.36501249 0.7480619 47.125 -0.25 C50.25 0.5625 50.25 0.5625 52.25 2.5625 C52.86191668 5.69323651 52.69077192 7.76559364 51.13623047 10.57617188 C49.55297622 12.8788977 47.8925294 15.09846849 46.1875 17.3125 C45.59565918 18.10873779 45.00381836 18.90497559 44.39404297 19.7253418 C42.26034101 22.59592273 40.10190619 25.44691607 37.93115234 28.28955078 C36.90122275 29.64290742 35.88714661 31.00829286 34.875 32.375 C34.05902344 33.43654297 34.05902344 33.43654297 33.2265625 34.51953125 C31.90287846 37.28867826 32.43919918 38.63393179 33.25 41.5625 C34.43801526 43.77686924 34.43801526 43.77686924 35.98046875 45.890625 C36.53669922 46.69113281 37.09292969 47.49164063 37.66601562 48.31640625 C38.25060547 49.14011719 38.83519531 49.96382812 39.4375 50.8125 C41.14441423 53.25317325 42.84974914 55.69491509 44.55224609 58.13867188 C45.6938481 59.76849999 46.84809511 61.38953658 48.01416016 63.00195312 C48.56249512 63.77990234 49.11083008 64.55785156 49.67578125 65.359375 C50.17118408 66.04870117 50.66658691 66.73802734 51.17700195 67.44824219 C52.47859874 70.01293574 52.53418906 71.72119965 52.25 74.5625 C51.0625 76.375 51.0625 76.375 49.25 77.5625 C46.859375 77.8828125 46.859375 77.8828125 44.25 77.5625 C42.43359375 75.97265625 42.43359375 75.97265625 40.6875 73.625 C40.01332031 72.73167969 39.33914063 71.83835937 38.64453125 70.91796875 C36.78297232 68.33430186 34.95970726 65.72426056 33.13671875 63.11328125 C32.59797119 62.34298584 32.05922363 61.57269043 31.50415039 60.77905273 C30.42340987 59.22572104 29.35086781 57.66665102 28.28686523 56.10180664 C27.79259033 55.38500732 27.29831543 54.66820801 26.7890625 53.9296875 C26.34771973 53.28112793 25.90637695 52.63256836 25.45166016 51.96435547 C25.0551123 51.50174316 24.65856445 51.03913086 24.25 50.5625 C23.59 50.5625 22.93 50.5625 22.25 50.5625 C21.01169642 52.21964156 19.86151772 53.94278161 18.75 55.6875 C18.04101562 56.76902344 17.33203125 57.85054687 16.6015625 58.96484375 C15.39831147 60.80544021 14.195435 62.64625833 12.99511719 64.48876953 C11.72352384 66.42226831 10.42711548 68.33696048 9.125 70.25 C8.72990234 70.86182129 8.33480469 71.47364258 7.92773438 72.10400391 C5.8421364 75.13018251 4.62858283 76.44836841 1.0625 77.5234375 C-1.75 77.5625 -1.75 77.5625 -3.625 76.5 C-5.35441211 73.52156803 -5.22965647 72.02066843 -4.75 68.5625 C-2.83331011 65.07924784 -0.49207016 61.93863877 1.875 58.75 C3.73135167 56.19024994 5.58491161 53.62855556 7.43457031 51.06396484 C8.64564173 49.39524002 9.87431687 47.73915157 11.12011719 46.09619141 C11.68633789 45.31808105 12.25255859 44.5399707 12.8359375 43.73828125 C13.34946777 43.05290283 13.86299805 42.36752441 14.39208984 41.66137695 C15.50790477 39.53357166 15.50790477 39.53357166 14.59570312 37.09228516 C13.24659508 34.5560991 11.79852413 32.25029341 10.1328125 29.91015625 C9.52566406 29.05099609 8.91851562 28.19183594 8.29296875 27.30664062 C7.66003906 26.42169922 7.02710938 25.53675781 6.375 24.625 C3.99662666 21.27320994 1.62176859 17.91896644 -0.75 14.5625 C-1.18683105 13.95164551 -1.62366211 13.34079102 -2.07373047 12.71142578 C-4.55978248 9.14650015 -5.3484511 6.9511414 -4.75 2.5625 C-2.75 0.5625 -2.75 0.5625 0 0 Z " fill="#23222A" transform="translate(337.75,87.4375)"/>
<path d="M0 0 C0.65710968 -0.0065712 1.31421936 -0.0131424 1.99124146 -0.01991272 C4.16880402 -0.03964587 6.34629767 -0.05130758 8.52392578 -0.0612793 C9.63900702 -0.06739259 9.63900702 -0.06739259 10.77661514 -0.07362938 C14.71044894 -0.09448912 18.64424785 -0.10879183 22.578125 -0.11816406 C26.64267661 -0.12923498 30.70668171 -0.16364228 34.77103996 -0.20333576 C37.89544702 -0.22946949 41.01972314 -0.23785291 44.14422989 -0.24144554 C45.64256613 -0.24631912 47.14089622 -0.25795514 48.63912582 -0.27648354 C50.73642168 -0.30081042 52.83229401 -0.29992308 54.9296875 -0.29296875 C56.71933426 -0.30176811 56.71933426 -0.30176811 58.5451355 -0.31074524 C62.20811967 0.27520098 63.38288298 1.25181498 65.59423828 4.17700195 C66.07815575 7.01137568 66.11243959 8.42514387 64.46801758 10.81103516 C61.71222103 12.81998391 59.55422186 12.51582526 56.17626953 12.4699707 C54.92265625 12.46030273 53.66904297 12.45063477 52.37744141 12.44067383 C51.06710938 12.41553711 49.75677734 12.39040039 48.40673828 12.36450195 C47.07146665 12.34945162 45.73617891 12.33576382 44.40087891 12.32348633 C41.13159252 12.28807889 37.86311735 12.23869085 34.59423828 12.17700195 C34.59713867 13.35464111 34.60003906 14.53228027 34.60302734 15.74560547 C34.62395134 27.90143353 34.58669735 40.0555917 34.38671875 52.20996094 C34.35800706 54.17308115 34.33705115 56.13632777 34.32324219 58.09960938 C34.30189173 60.98927484 34.25542612 63.87758592 34.20361328 66.7668457 C34.20177032 68.07769386 34.20177032 68.07769386 34.19989014 69.4150238 C34.07458317 74.60038334 33.48453929 77.38594332 29.59423828 81.17700195 C26.71923828 80.86450195 26.71923828 80.86450195 23.59423828 80.17700195 C21.18995559 76.57057792 21.37748508 75.05654501 21.45898438 70.77783203 C21.46844589 70.13365829 21.47790741 69.48948456 21.48765564 68.82579041 C21.52130221 66.6990806 21.56942459 64.57295764 21.61767578 62.4465332 C21.6438462 60.97110014 21.66911295 59.4956508 21.69351196 58.02018738 C21.76013099 54.13855367 21.83903038 50.25726277 21.92047119 46.37591553 C22.00142265 42.41456246 22.07078319 38.45300843 22.14111328 34.49145508 C22.28079796 26.71972721 22.43345393 18.94832497 22.59423828 11.17700195 C21.73145264 11.19794922 20.86866699 11.21889648 19.97973633 11.24047852 C16.77616318 11.30868098 13.57296012 11.35881509 10.36889648 11.39672852 C8.9827049 11.4168347 7.59659803 11.4441244 6.21069336 11.47875977 C4.21781922 11.52731421 2.22432439 11.54784167 0.23095703 11.56762695 C-0.96827393 11.58857422 -2.16750488 11.60952148 -3.40307617 11.63110352 C-6.40576172 11.17700195 -6.40576172 11.17700195 -8.33227539 9.35180664 C-9.83976306 6.29774702 -9.33330988 4.38774558 -8.40576172 1.17700195 C-5.57247507 -0.23964137 -3.16825658 0.02617608 0 0 Z " fill="#26252E" transform="translate(198.40576171875,87.822998046875)"/>
<path d="M0 0 C5.93749312 1.63453376 10.98228894 4.62995095 16.3125 7.625 C35.96800991 18.48335348 53.43022959 26.07485685 76 28 C72.57289879 30.82782668 69.07282435 33.3225484 65.3125 35.6875 C64.35988281 36.28949219 63.40726562 36.89148438 62.42578125 37.51171875 C57.89098804 40.29393488 54.2604795 40.97416287 49 40 C44.11318205 38.08639168 39.51931096 35.48786119 34.90234375 33.00878906 C32.3460737 31.65323107 29.75037138 30.40322595 27.125 29.1875 C26.26519531 28.7853125 25.40539062 28.383125 24.51953125 27.96875 C22.0331379 26.91092092 22.0331379 26.91092092 19.38671875 26.59375 C15.78150638 26.02479388 13.11069174 25.51341806 10.85400391 22.43847656 C8.53203246 18.48553612 6.69768273 14.33107738 4.91894531 10.11181641 C3.4207253 6.66877626 1.70440571 3.34499007 0 0 Z " fill="#E6E6E7" transform="translate(238,306)"/>
<path d="M0 0 C4.88121545 3.32727046 8.06384598 7.3850558 11.0859375 12.421875 C11.0859375 13.081875 11.0859375 13.741875 11.0859375 14.421875 C-15.9740625 14.421875 -43.0340625 14.421875 -70.9140625 14.421875 C-68.31497754 12.6891517 -66.36096895 11.75283108 -63.46533203 10.72607422 C-62.56654327 10.40589325 -61.66775452 10.08571228 -60.74172974 9.75582886 C-56.60364382 8.30951215 -52.46520188 6.86461533 -48.32128906 5.43505859 C-46.14799387 4.68142112 -43.97766875 3.9191588 -41.81054688 3.14794922 C-12.58627978 -7.25034887 -12.58627978 -7.25034887 0 0 Z " fill="#87B7E4" transform="translate(357.9140625,26.578125)"/>
<path d="M0 0 C0.7321019 -0.00043808 1.4642038 -0.00087616 2.2184906 -0.00132751 C4.6319368 0.0007581 7.04468337 0.02407763 9.45800781 0.04760742 C11.13380555 0.0532042 12.8096082 0.05747391 14.4854126 0.06047058 C18.89139408 0.07191292 23.29707786 0.10137474 27.70294189 0.13458252 C32.20068332 0.16529663 36.69847295 0.17897878 41.19628906 0.1940918 C50.01803429 0.22624511 58.83955877 0.27743402 67.66113281 0.34057617 C65.06428499 2.07180806 63.21174667 2.95237869 60.31323242 3.92871094 C59.43900131 4.22564346 58.5647702 4.52257599 57.66404724 4.82850647 C56.25301476 5.30047707 56.25301476 5.30047707 54.81347656 5.78198242 C53.84583878 6.10972153 52.87820099 6.43746063 51.88124084 6.77513123 C48.7884202 7.82192318 45.69363852 8.86276435 42.59863281 9.90307617 C39.50041071 10.94797335 36.40261349 11.99410661 33.30531311 13.04173279 C31.37724736 13.69350713 29.44858119 14.34350845 27.51927185 14.99159241 C26.6481929 15.28537277 25.77711395 15.57915314 24.87963867 15.88183594 C24.11147324 16.1400563 23.3433078 16.39827667 22.55186462 16.6643219 C20.60956425 17.31641501 20.60956425 17.31641501 18.66113281 18.34057617 C9.94871563 19.22701397 2.84145041 18.60028434 -4.33886719 13.34057617 C-6.96298323 10.87220803 -9.33732052 8.34289617 -11.33886719 5.34057617 C-11.33886719 3.34057617 -11.33886719 3.34057617 -9.79754639 1.73686218 C-6.53093744 -0.11824782 -3.65273236 -0.05735383 0 0 Z " fill="#87B8E4" transform="translate(216.3388671875,470.659423828125)"/>
<path d="M0 0 C2 2 2 2 2.5078125 4.26953125 C1.7468576 8.36112719 -1.05899788 10.15902217 -4.125 12.6875 C-13.24876601 20.65818147 -18.92808571 29.69266424 -20.5 41.875 C-21 45 -21 45 -22.25 47 C-24 48 -24 48 -26.625 47.75 C-29 47 -29 47 -30 46 C-31.18556305 31.77324339 -24.73938854 19.99223587 -16.0625 9.1875 C-11.67191256 4.32733102 -6.95725347 -0.83395649 0 0 Z " fill="#FFFDF9" transform="translate(84,306)"/>
<path d="M0 0 C0.66 0 1.32 0 2 0 C3.17461555 3.10121711 4.33830456 6.20642241 5.5 9.3125 C5.83386719 10.19357422 6.16773438 11.07464844 6.51171875 11.98242188 C6.82753906 12.82998047 7.14335937 13.67753906 7.46875 14.55078125 C7.76201172 15.33106689 8.05527344 16.11135254 8.35742188 16.9152832 C9 19 9 19 9 22 C4.05 22 -0.9 22 -6 22 C-4.875 14.125 -4.875 14.125 -3.80859375 11.03515625 C-3.58623047 10.38095703 -3.36386719 9.72675781 -3.13476562 9.05273438 C-2.90466797 8.39595703 -2.67457031 7.73917969 -2.4375 7.0625 C-2.20353516 6.37865234 -1.96957031 5.69480469 -1.72851562 4.99023438 C-1.15788171 3.32491499 -0.57972902 1.66217507 0 0 Z " fill="#EDEDEE" transform="translate(289,112)"/>
<path d="M0 0 C0.66 2.97 1.32 5.94 2 9 C-0.00513672 9.52400391 -0.00513672 9.52400391 -2.05078125 10.05859375 C-3.80470116 10.51817704 -5.55860666 10.97781532 -7.3125 11.4375 C-8.19357422 11.66759766 -9.07464844 11.89769531 -9.98242188 12.13476562 C-10.82998047 12.35712891 -11.67753906 12.57949219 -12.55078125 12.80859375 C-13.33106689 13.01282959 -14.11135254 13.21706543 -14.9152832 13.42749023 C-16.62605276 13.89730574 -18.3169334 14.4389778 -20 15 C-18.6328965 9.36069806 -14.4350627 6.35112014 -10 3 C-6.11864117 0.68611301 -4.55725822 0 0 0 Z " fill="#8FC3F2" transform="translate(112,250)"/>
<path d="M0 0 C0.66 2.31 1.32 4.62 2 7 C-6.58 7 -15.16 7 -24 7 C-20.70464807 4.80309871 -17.40674202 3.61836177 -13.6875 2.375 C-13.03587891 2.14554688 -12.38425781 1.91609375 -11.71289062 1.6796875 C-7.67950796 0.32311435 -4.24711841 -0.25021783 0 0 Z " fill="#90C4F4" transform="translate(311,34)"/>
<path d="M0 0 C2 2 2 2 2.375 4.4375 C2 7 2 7 0.3125 8.875 C-2.61922354 10.30124388 -3.95326554 10.04230389 -7 9 C-7.66 8.34 -8.32 7.68 -9 7 C-8.8125 4.5 -8.8125 4.5 -8 2 C-4.77626323 -0.14915785 -3.73296326 -0.38286803 0 0 Z " fill="#FFFBF3" transform="translate(102,297)"/>
</svg>
